<svg width="60" height="68" viewBox="0 0 60 68" fill="none" xmlns="http://www.w3.org/2000/svg">
<g clip-path="url(#clip0_12318_24317)">
<g clip-path="url(#clip1_12318_24317)">
<g clip-path="url(#clip2_12318_24317)">
<mask id="mask0_12318_24317" style="mask-type:luminance" maskUnits="userSpaceOnUse" x="0" y="0" width="60" height="60">
<path d="M59.4671 0.47998H0.162109V59.785H59.4671V0.47998Z" fill="white"/>
</mask>
<g mask="url(#mask0_12318_24317)">
<path d="M38.1426 28.7657L41.1426 24.0514L45.4283 21.9086C45.9997 21.7657 47.2283 21.5657 47.5711 21.9086C47.914 22.2514 52.8569 28.9086 55.2854 32.1943L57.4283 36.0514C56.9997 36.9086 56.0569 38.7086 55.714 39.0514C55.3711 39.3943 52.1425 40.9086 50.5711 41.6228C49.714 41.7657 47.914 42.0514 47.5711 42.0514C47.2283 42.0514 43.1425 36.6229 41.1426 33.9086L38.8926 30.0514L38.1426 28.7657Z" fill="#FDC040"/>
<path d="M47.5723 42.0513C47.2294 42.0513 43.1437 36.6227 41.1437 33.9084L38.8937 30.0513H37.2866H33.0008C32.5723 30.0513 30.4294 30.9084 29.5723 31.337L27.0008 32.6227C26.1437 33.0513 25.2866 33.9084 24.858 34.337C24.4294 34.7656 23.5723 36.0513 23.5723 36.4798C23.5723 36.9084 23.5723 37.7656 24.0008 38.1941C24.4294 38.6227 25.2866 39.0513 25.7151 39.0513H28.2866C28.9723 39.0513 30.858 38.1941 31.7151 37.7656C32.0008 37.9084 32.658 38.2798 33.0008 38.6227C33.3437 38.9656 36.2865 41.0512 37.7151 42.0513L41.1437 45.4798C41.7152 45.7655 42.9437 46.2513 43.2866 45.9084C43.6294 45.5656 44.858 44.6227 45.4294 44.1941L46.7151 43.337L47.5723 42.0513Z" fill="#FDC040"/>
<path d="M13.2852 46.7659C13.2852 47.4516 14.428 48.7658 14.9994 49.3373L17.9994 51.9087L19.7137 53.1944L21.428 54.9087C21.9995 55.1944 23.1423 55.8516 23.1423 56.1944C23.1423 56.5373 24.8566 56.9087 25.7137 57.0516C26.1423 56.7659 27.0852 56.1087 27.428 55.7659C27.8566 55.3373 27.8566 55.3373 27.8566 54.4802C27.8566 53.623 27.8566 52.7659 27.428 51.9087C26.9994 51.0516 26.9994 49.3373 26.5709 48.9087C26.1423 48.4802 24.428 47.623 24.428 47.1944C24.428 46.7659 23.1423 45.0516 22.7137 44.623C22.2852 44.1944 21.428 42.4802 20.9994 42.0516C20.5709 41.623 19.2852 40.7659 18.428 41.1944C17.5709 41.623 14.9994 43.7659 14.5709 44.1944C14.228 44.5373 13.5708 46.0516 13.2852 46.7659Z" fill="#FDC040"/>
<path d="M21.4294 4.76562C24.0008 8.33706 31.3723 15.3085 40.2866 14.6228L38.5723 19.7656L36.0008 21.9085L27.858 24.4799L21.4294 22.3371L17.5723 15.4799L18.0008 9.90848L20.1437 6.05134L21.4294 4.76562Z" fill="#FDC040"/>
<path d="M28.8569 15.8868C28.4044 15.8868 27.8496 15.8206 27.4697 15.3973C27.3376 15.2486 27.2219 15.1096 27.1097 14.9938C26.2047 14.0415 24.6458 15.3643 25.5904 16.6009L25.8183 16.8951C25.9669 17.0805 26.2345 17.2953 26.6175 17.5401C26.9908 17.778 27.4069 17.95 27.8693 18.0525V19.6863C27.8693 20.2484 28.3282 20.7113 28.8899 20.7113C29.4547 20.7113 29.9335 20.2484 29.9335 19.6863V18.0427C30.6734 17.8709 31.3075 17.5103 31.826 16.9648C32.3476 16.419 32.6086 15.695 32.6086 14.7921C32.6086 14.1771 32.4899 13.6647 32.252 13.2512C32.0142 12.8411 31.7235 12.5535 31.3767 12.3914C31.0267 12.2293 30.6469 12.0871 30.2274 11.9649C29.8113 11.8425 29.4315 11.7565 29.0814 11.7037C28.7347 11.6539 28.444 11.548 28.2062 11.3928C27.9683 11.2339 27.8495 11.0289 27.8495 10.7743C27.8495 9.55748 29.633 9.7062 30.4189 10.3676C31.5782 11.3431 32.876 9.55748 31.5319 8.54892L31.3766 8.40992C31.2709 8.32745 31.086 8.22482 30.8185 8.09579C30.5542 7.96698 30.2569 7.87096 29.9334 7.80146V6.81285V6.38301C29.9334 5.82077 29.4742 5.35791 28.9095 5.35791C28.348 5.35791 27.8858 5.82066 27.8858 6.38301V7.78501C27.1326 7.93386 26.5084 8.30764 26.0759 8.85969C25.64 9.42197 25.4186 10.0437 25.4186 10.7379C25.4186 11.4357 25.5806 12.0078 25.9041 12.4609C26.2278 12.9136 26.6209 13.2312 27.0866 13.4164C27.5489 13.6017 28.0112 13.7505 28.4736 13.8595C28.9392 13.9721 29.3324 14.0943 29.6558 14.2365C29.9796 14.3754 30.1414 14.5706 30.1414 14.8251C30.1415 15.5328 29.7122 15.8868 28.8569 15.8868Z" fill="#3BB77E"/>
<path d="M58.2429 33.9371L48.7254 21.7463C48.0843 20.923 47.1123 20.4507 46.0589 20.4507C45.3153 20.4507 44.6114 20.6867 44.0207 21.1349L37.792 25.883C37.079 26.4263 36.6235 27.2149 36.5094 28.1033C36.4923 28.2358 36.4843 28.3678 36.4829 28.4992C34.1083 28.3193 31.6557 28.5001 29.2739 30.0483L29.1671 30.1176L23.1418 29.1962C23.1541 28.9876 23.1475 28.7765 23.1199 28.5646C23.0051 27.6783 22.5504 26.8915 21.8388 26.349L15.6085 21.6053C14.1488 20.489 12.0383 20.7602 10.9033 22.2113L8.6344 25.1181C8.23732 25.6265 8.32789 26.3606 8.83642 26.7575C9.34497 27.1545 10.079 27.0639 10.476 26.5554L12.7441 23.6497C13.0875 23.2107 13.7493 23.1243 14.1913 23.4624L20.423 28.2072C20.6341 28.3681 20.7691 28.6017 20.8032 28.8651C20.8373 29.1288 20.7661 29.3899 20.6035 29.5987L11.0841 41.7916C10.7431 42.2296 10.0804 42.3151 9.63905 41.9805L3.41009 37.2319C3.19789 37.0703 3.06226 36.8358 3.02831 36.5721C2.99461 36.3095 3.06585 36.0503 3.22974 35.8409L4.84812 33.7676C5.24507 33.2591 5.15461 32.5251 4.646 32.1282C4.13751 31.731 3.40349 31.8217 3.00642 32.3303L1.38898 34.4023C0.837969 35.1067 0.597274 35.983 0.711251 36.8698C0.825344 37.758 1.28102 38.5466 1.99384 39.0899L8.2248 43.8401C8.8312 44.3 9.54785 44.5225 10.2598 44.5224C10.6716 44.5224 11.0813 44.4467 11.4676 44.3009L12.274 45.4053C11.8357 46.2048 11.7673 47.1653 12.1196 48.0923C12.6231 49.4177 13.8112 50.3162 15.0966 50.359C15.1364 50.5478 15.1916 50.7365 15.2671 50.9233C15.7852 52.2071 16.9682 53.0808 18.2395 53.1383C18.2453 53.1717 18.2497 53.2051 18.2565 53.2385C18.4984 54.4139 19.4001 55.4177 20.5537 55.7959C20.8475 55.8923 21.1438 55.9417 21.4372 55.9505C21.5496 56.4237 21.7844 56.8808 22.1455 57.282C22.7083 57.9077 23.53 58.3079 24.4314 58.3078C25.086 58.3078 25.7827 58.0954 26.4523 57.6059L27.775 58.8423C28.4487 59.471 29.2969 59.7849 30.1369 59.7849C30.9889 59.7848 31.8324 59.4618 32.4765 58.8171C32.8606 58.4327 33.1582 57.9753 33.3507 57.4937C33.6789 57.5935 33.9996 57.6407 34.3072 57.6407C35.1735 57.6407 35.938 57.2748 36.4857 56.7107C36.9339 56.2491 37.2547 55.6346 37.3966 54.9796C37.444 54.982 37.4914 54.9839 37.539 54.9844C37.5507 54.9845 37.5621 54.9845 37.5738 54.9845C38.4952 54.9845 39.3792 54.6276 40.0035 54.0024C40.4409 53.5646 40.7418 53.0256 40.8854 52.4372C41.1083 52.4807 41.3321 52.5034 41.5554 52.5034C41.8365 52.5034 42.117 52.4685 42.3932 52.3977C43.5196 52.1091 44.3894 51.2287 44.6631 50.1002C44.9157 49.0589 44.6555 47.9619 43.947 46.9648C45.7814 45.4889 46.5235 44.7618 47.3615 43.4024C47.9339 43.8235 48.6307 44.0555 49.3672 44.0555C50.1129 44.0555 50.8182 43.8177 51.4045 43.3693L57.6373 38.6237C58.3483 38.0818 58.8031 37.2952 58.918 36.4087C59.0329 35.5215 58.7935 34.644 58.2429 33.9371ZM15.7076 47.7833C15.5287 47.9449 15.3552 48.0269 15.1918 48.0269C14.8563 48.0269 14.4662 47.6914 14.3034 47.2627C14.1555 46.8734 14.2244 46.5481 14.5089 46.2955L14.5127 46.2923L14.5162 46.2892L18.4514 42.7913C18.7807 42.4993 19.1119 42.3449 19.4097 42.3449C19.8455 42.3449 20.1713 42.6758 20.2896 42.9835C20.4161 43.3121 20.34 43.6053 20.0647 43.8542L19.3788 44.4728L19.377 44.4744C19.3735 44.4773 19.3704 44.4803 19.3669 44.4833C19.3424 44.5056 19.3171 44.5285 19.292 44.5511L15.7076 47.7833ZM18.8885 50.5751C18.7111 50.7318 18.5421 50.8078 18.3721 50.8078C18.0175 50.8078 17.6053 50.4746 17.4336 50.0489C17.2442 49.58 17.4689 49.3635 17.5399 49.2949C17.5855 49.2512 17.6403 49.1987 17.6974 49.1375L17.6984 49.1366L17.7105 49.126C17.9352 48.9252 19.9139 47.1374 20.8593 46.2832L20.9298 46.2197C21.2502 45.9384 21.5747 45.7898 21.8688 45.7898C22.3326 45.7898 22.6778 46.1447 22.8024 46.4744C22.9262 46.8022 22.8519 47.0891 22.5825 47.3263L22.3402 47.5394C22.3384 47.541 22.3366 47.5423 22.3349 47.5439L22.3332 47.5457L18.8885 50.5751ZM22.3701 53.0963C22.354 53.1108 22.3388 53.126 22.3232 53.1407L22.0491 53.388C21.8055 53.6081 21.5616 53.6681 21.2813 53.5762C20.9269 53.4599 20.6175 53.12 20.545 52.7679C20.4819 52.4617 20.6045 52.178 20.9156 51.9037L21.3054 51.5632C21.3152 51.5546 21.3237 51.5452 21.3332 51.5363L23.8863 49.2911C24.4981 48.7502 25.1041 48.696 25.5073 49.1469C25.5641 49.2104 26.045 49.7821 25.4579 50.3125L23.8899 51.7274C23.8731 51.7422 23.8561 51.7555 23.8394 51.7707C23.8335 51.7762 23.8286 51.7824 23.8228 51.7877L22.388 53.0824C22.3823 53.0873 22.3758 53.0912 22.3701 53.0963ZM23.8824 55.7195C23.7593 55.5828 23.5218 55.2285 23.9113 54.8543L25.4755 53.443C25.5939 53.3417 25.708 53.2614 25.8148 53.2063C25.8196 53.2037 25.8247 53.2012 25.8295 53.1987C26.46 52.8619 26.8016 53.2545 26.8915 53.3827C27.007 53.5476 27.1478 53.8716 26.7937 54.1897L25.7221 55.153C25.718 55.1566 25.7141 55.1603 25.7101 55.1639L25.2455 55.5814C24.482 56.2667 24.0091 55.8605 23.8824 55.7195ZM42.3927 49.5496C42.3209 49.8455 42.1098 50.0587 41.8134 50.1347C41.322 50.2605 40.7 49.9877 40.1305 49.4033C40.0879 49.3561 40.0441 49.3096 39.9983 49.2645L35.5891 44.906C35.1301 44.4527 34.3906 44.4569 33.9372 44.9157C33.4837 45.3744 33.4879 46.1141 33.9466 46.5675L38.3487 50.9189C38.3561 50.9267 38.3635 50.9343 38.3707 50.9421C38.5466 51.1229 38.6444 51.3646 38.6455 51.6262C38.6466 51.9024 38.5418 52.16 38.3505 52.3516C38.1618 52.5407 37.8795 52.6485 37.5745 52.6485C37.5702 52.6485 37.566 52.6485 37.5617 52.6483C37.2916 52.6458 37.0451 52.5553 36.8716 52.3974C36.7985 52.303 36.7189 52.2113 36.6314 52.1235L33.4081 48.8962C32.9521 48.4399 32.2125 48.4394 31.7561 48.8951C31.2997 49.351 31.2992 50.0905 31.755 50.5469L34.8119 53.6076C34.8487 53.6615 34.8896 53.7135 34.9366 53.7621L35.0667 53.8962C35.2343 54.2153 35.1304 54.7529 34.8096 55.0835C34.3145 55.5934 33.6177 55.1439 33.1213 54.6777L31.7409 53.3782C31.2712 52.936 30.5318 52.9583 30.0897 53.428C29.6475 53.8978 29.6698 54.6371 30.1395 55.0793L31.194 56.0718C31.1966 56.0742 31.1987 56.0769 31.2013 56.0792C31.2253 56.1017 31.2616 56.1358 31.2634 56.2535C31.2679 56.5273 31.0872 56.9027 30.8239 57.1662C30.4395 57.5508 29.8005 57.5371 29.3697 57.135L28.2138 56.0546L28.355 55.9275C29.5013 54.8982 29.6863 53.3009 28.8049 52.0427C28.5181 51.6332 28.1589 51.3151 27.756 51.0944C28.324 49.9742 28.1652 48.6141 27.2484 47.5894C26.7313 47.0111 26.0007 46.6163 25.1852 46.5288C25.1619 46.2358 25.0978 45.9404 24.9878 45.6492C24.5911 44.5986 23.709 43.8253 22.6709 43.5575C22.7141 43.0921 22.6498 42.6117 22.4701 42.1443C21.9784 40.8671 20.7487 40.0087 19.4098 40.0087C18.5318 40.0087 17.6645 40.3666 16.9005 41.0442L13.9182 43.6951L13.2626 42.7973L22.1545 31.4085L26.2198 32.0303L25.6048 32.4293C22.3105 34.5665 22.0694 37.0522 22.9423 38.6658C23.6409 39.9575 25.0351 40.6957 26.5151 40.6957C27.1243 40.6956 27.7484 40.5705 28.3441 40.3073C28.3599 40.3001 28.3755 40.2929 28.3909 40.2853L31.4706 38.7583L33.2484 40.3771C33.2502 40.3787 33.252 40.3799 33.2536 40.3814C33.2553 40.3829 33.2568 40.3846 33.2585 40.3862L41.4757 47.6942C42.1798 48.3203 42.5227 49.0139 42.3927 49.5496ZM42.2945 45.2962L34.8161 38.6452L32.4531 36.4937C32.0973 36.1696 31.5789 36.0969 31.1479 36.3108L27.3782 38.18C26.3541 38.6205 25.3467 38.2013 24.9969 37.5546C24.5162 36.666 25.2362 35.453 26.8761 34.3892L30.5462 32.0076C32.5362 30.714 34.6237 30.6143 37.4792 30.9456L45.7477 41.5403C44.8752 43.1072 44.4118 43.6046 42.2945 45.2962ZM56.6011 36.1084C56.5671 36.3714 56.432 36.6049 56.2214 36.7655L49.9873 41.5121C49.7634 41.6834 49.5266 41.7193 49.3675 41.7193C49.0398 41.7192 48.7389 41.575 48.543 41.3243L39.027 29.1314C38.8638 28.9228 38.7926 28.6635 38.8264 28.401C38.8603 28.1372 38.9958 27.9026 39.2082 27.7409L45.435 22.9942C45.6609 22.8229 45.8988 22.7869 46.0587 22.7869C46.3867 22.7869 46.6868 22.9307 46.883 23.1826L56.4006 35.3735C56.5641 35.5837 56.6354 35.8445 56.6011 36.1084Z" fill="#3BB77E"/>
<path d="M22.9602 24.2093C24.7941 25.1989 26.8658 25.7219 28.9512 25.7219C35.9035 25.7219 41.5598 20.0594 41.5598 13.0992C41.5598 8.24153 38.7238 3.76191 34.3358 1.68704C32.6455 0.886081 30.8338 0.47998 28.9512 0.47998C22.0004 0.47998 16.3457 6.14095 16.3457 13.0992C16.3457 17.7401 18.8795 21.9968 22.9602 24.2093ZM28.9512 2.81605C30.485 2.81605 31.9602 3.14651 33.3363 3.7984C36.9126 5.48941 39.2235 9.1403 39.2235 13.0992C39.2235 18.7713 34.6154 23.3858 28.9513 23.3858C27.2518 23.3858 25.5638 22.9596 24.0717 22.1546C20.7471 20.3519 18.6818 16.8821 18.6818 13.0992C18.6818 7.42909 23.2886 2.81605 28.9512 2.81605Z" fill="#3BB77E"/>
<path d="M6.01179 30.354C6.22688 30.5257 6.48415 30.6091 6.73966 30.6091C7.08276 30.6091 7.42272 30.4586 7.65333 30.1695L7.66654 30.1529C8.06894 29.6488 7.98634 28.9138 7.48214 28.5114C6.97793 28.1093 6.24287 28.1915 5.8406 28.6959L5.82739 28.7125C5.42499 29.2167 5.50758 29.9516 6.01179 30.354Z" fill="#3BB77E"/>
</g>
</g>
</g>
</g>
<defs>
<clipPath id="clip0_12318_24317">
<rect width="60" height="60" fill="white" transform="translate(0 0.47998)"/>
</clipPath>
<clipPath id="clip1_12318_24317">
<rect width="60" height="60" fill="white" transform="translate(0 0.47998)"/>
</clipPath>
<clipPath id="clip2_12318_24317">
<rect width="60" height="60" fill="white" transform="translate(0 0.47998)"/>
</clipPath>
</defs>
</svg>
