<svg width="60" height="68" viewBox="0 0 60 68" fill="none" xmlns="http://www.w3.org/2000/svg">
<g clip-path="url(#clip0_12318_24377)">
<g clip-path="url(#clip1_12318_24377)">
<g clip-path="url(#clip2_12318_24377)">
<mask id="mask0_12318_24377" style="mask-type:luminance" maskUnits="userSpaceOnUse" x="0" y="0" width="60" height="60">
<path d="M59.8377 0.47998H0.648438V59.6692H59.8377V0.47998Z" fill="white"/>
</mask>
<g mask="url(#mask0_12318_24377)">
<path d="M12.4277 14.623V30.4802C15.4277 29.4802 22.7992 29.2802 28.2849 36.4802C29.5706 39.1945 31.6277 45.4802 29.5706 48.9088L35.5706 52.3373V26.623L12.4277 14.623Z" fill="#FDC040"/>
<path d="M59.2379 13.2817L36.1857 0.623542C35.8394 0.433429 35.4194 0.433429 35.0731 0.623542L26.3843 5.39446C26.201 5.44278 26.0298 5.53491 25.888 5.66722L12.0213 13.2817C11.6516 13.4845 11.4217 13.8728 11.4217 14.2951V29.6045C9.08253 30.3361 6.93886 31.6261 5.15648 33.409C0.510651 38.0544 -0.673837 45.1396 2.20903 51.0395C2.48901 51.613 3.18128 51.851 3.75479 51.5706C4.32874 51.2901 4.56627 50.5979 4.28629 50.0244C1.83694 45.0114 2.8435 38.9914 6.7912 35.0437C9.25996 32.5749 12.542 31.2152 16.0332 31.2152C19.5243 31.2152 22.8064 32.5749 25.2752 35.0437C27.7435 37.5121 29.1032 40.7941 29.1032 44.2853C29.1032 47.7764 27.7435 51.0585 25.2747 53.5273C21.3271 57.4749 15.307 58.4815 10.2941 56.0322C9.72059 55.7517 9.02827 55.9897 8.74833 56.5632C8.46791 57.1372 8.70547 57.8294 9.27942 58.1094C11.4284 59.1598 13.7342 59.6701 16.0232 59.6701C20.0166 59.6696 23.9566 58.1153 26.9099 55.162C28.2642 53.8077 29.3344 52.2452 30.0917 50.5468L35.0731 53.282C35.2465 53.3773 35.438 53.4247 35.6294 53.4247C35.8208 53.4247 36.0128 53.3773 36.1857 53.282L59.2379 40.6243C59.6078 40.4211 59.8376 40.0327 59.8376 39.6109V31.5769C59.8376 30.9385 59.3201 30.4209 58.6815 30.4209C58.043 30.4209 57.5255 30.9385 57.5255 31.5769V38.9269L36.7891 50.3134V27.6351L43.6328 23.8771V29.8343C43.6328 30.2435 43.8486 30.6218 44.2004 30.8296C44.3819 30.9367 44.5851 30.9903 44.7888 30.9903C44.9803 30.9903 45.1722 30.9429 45.346 30.8472L50.2858 28.1282C50.6552 27.925 50.8842 27.5371 50.8842 27.1159V19.8951L57.5255 16.2486V22.3291C57.5255 22.9676 58.043 23.4852 58.6815 23.4852C59.3201 23.4852 59.8376 22.9676 59.8376 22.3291V14.2951C59.8376 13.8733 59.6078 13.4845 59.2379 13.2817ZM35.6294 2.95549L56.2796 14.2951L49.7656 17.872L29.1154 6.53244L35.6294 2.95549ZM35.6294 25.6342L14.9792 14.2951L21.7321 10.5867L42.3828 21.9259L35.6294 25.6342ZM44.7842 20.6072L24.134 9.26808L26.7134 7.8515L47.3641 19.1906L44.7842 20.6072ZM26.9099 33.409C24.0044 30.5035 20.1416 28.9036 16.0332 28.9036C15.256 28.9036 14.4884 28.9609 13.7337 29.0734V16.2486L34.4774 27.6392V50.3174L30.877 48.3404C31.2315 47.0353 31.4149 45.6743 31.4149 44.2853C31.4149 40.1768 29.8149 36.314 26.9099 33.409ZM48.5726 26.4325L45.9448 27.879V22.6077L48.5726 21.1649V26.4325Z" fill="#3BB77E"/>
<path d="M58.6814 25.7905C58.3776 25.7905 58.079 25.9143 57.8641 26.1293C57.6492 26.3442 57.5254 26.6423 57.5254 26.9466C57.5254 27.2505 57.6492 27.5485 57.8641 27.7635C58.079 27.9789 58.3776 28.1022 58.6814 28.1022C58.9854 28.1022 59.2838 27.9789 59.4988 27.7635C59.7138 27.5485 59.8375 27.2505 59.8375 26.9466C59.8375 26.6423 59.7138 26.3442 59.4988 26.1293C59.2838 25.9143 58.9854 25.7905 58.6814 25.7905Z" fill="#3BB77E"/>
<path d="M12.1451 45.4404C12.4409 45.4404 12.7371 45.3275 12.9624 45.1021C13.414 44.6505 13.414 43.9185 12.9624 43.467L12.1618 42.6659H18.9941C20.6514 42.6659 21.9998 44.0142 21.9998 45.6715C21.9998 47.3288 20.6514 48.6773 18.9941 48.6773H14.9457C14.3072 48.6773 13.7897 49.1947 13.7897 49.8333C13.7897 50.4714 14.3072 50.9889 14.9457 50.9889H18.9941C21.9263 50.9889 24.3119 48.6036 24.3119 45.6715C24.3119 42.7394 21.9263 40.3542 18.9941 40.3542H12.1618L12.9624 39.5531C13.414 39.1015 13.414 38.3695 12.9624 37.918C12.5112 37.4668 11.7792 37.4668 11.3277 37.918L8.55319 40.6925C8.10206 41.144 8.10206 41.876 8.55319 42.3276L11.3277 45.1016C11.5535 45.3275 11.8493 45.4404 12.1451 45.4404Z" fill="#3BB77E"/>
<path d="M5.97512 55.5016C5.64637 55.5016 5.31988 55.3616 5.09183 55.0902L5.08958 55.0875C4.67864 54.5989 4.74186 53.87 5.23047 53.4591C5.71907 53.0477 6.44837 53.1109 6.85931 53.5995C7.26979 54.0886 7.20793 54.8188 6.71931 55.2297C6.50211 55.4122 6.23794 55.5016 5.97512 55.5016Z" fill="#3BB77E"/>
</g>
</g>
</g>
</g>
<defs>
<clipPath id="clip0_12318_24377">
<rect width="60" height="60" fill="white" transform="translate(0 0.47998)"/>
</clipPath>
<clipPath id="clip1_12318_24377">
<rect width="60" height="60" fill="white" transform="translate(0 0.47998)"/>
</clipPath>
<clipPath id="clip2_12318_24377">
<rect width="60" height="60" fill="white" transform="translate(0 0.47998)"/>
</clipPath>
</defs>
</svg>
