<svg width="100" height="99" viewBox="0 0 100 99" fill="none" xmlns="http://www.w3.org/2000/svg">
<g filter="url(#filter0_d_16372_13036)">
<rect x="5" y="2.5" width="90" height="90" rx="45" fill="white"/>
<path fill-rule="evenodd" clip-rule="evenodd" d="M49.5659 25.5843C47.7842 25.9699 46.3049 27.4251 45.8798 29.2104C45.5505 30.5935 45.937 32.4247 46.7486 33.3269C47.4079 34.0599 48.2986 34.3832 50.1127 34.5479C50.9265 34.6218 51.7439 34.477 52.0089 34.2121C52.1775 34.0436 52.1877 33.9602 52.1322 33.2112C52.0988 32.7618 52.0392 32.152 51.9995 31.856C51.9151 31.2254 51.9996 30.8401 52.2802 30.5766C52.6423 30.2365 53.4717 29.9272 54.4462 29.7687C55.1653 29.6518 55.3973 29.5811 55.396 29.4794C55.3925 29.208 54.9571 28.1171 54.6803 27.6859C54.0196 26.6567 52.8183 25.8392 51.5847 25.5792C50.8188 25.4178 50.3292 25.419 49.5659 25.5843ZM54.1383 30.1969C53.3168 30.3647 52.7647 30.6017 52.4911 30.9041C52.3371 31.0743 52.3284 31.1674 52.3994 31.8777C52.4427 32.3097 52.4789 33.0354 52.48 33.4904C52.4817 34.2001 52.4565 34.3428 52.3025 34.4953C52.0796 34.7161 51.2028 34.9502 50.6013 34.9495C50.1696 34.949 48.6895 34.7536 48.1575 34.6269L47.9059 34.567L48.1751 34.8571C49.4358 36.2161 51.7021 36.5201 53.3548 35.552C54.5278 34.8649 55.3981 33.3159 55.3981 31.9153C55.3981 31.458 55.1975 30.5819 55.0162 30.2466L54.9046 30.0403L54.1383 30.1969ZM46.9747 36.2171C45.6927 36.4298 44.4757 37.4036 43.8333 38.7309C43.3862 39.6544 42.7419 41.8711 42.469 43.425C42.1078 45.4803 42.2104 49.2231 42.665 50.5831C43.0374 51.6971 43.6976 52.4232 44.6679 52.7861C44.9302 52.8842 46.8298 53.2244 48.9884 53.5599C51.1073 53.8894 52.8453 54.1651 52.8507 54.1728C52.8561 54.1805 53.4567 55.7002 54.1855 57.5499C55.6911 61.3718 55.6395 61.2574 56.0409 61.6668C56.65 62.2882 57.7726 62.5244 58.545 62.1937C59.3945 61.83 59.9717 60.9555 59.9732 60.0298C59.974 59.5599 59.8007 59.0653 58.3076 55.2766C57.391 52.9508 56.5576 50.9129 56.4556 50.7479C56.2257 50.3761 55.655 49.9545 55.2272 49.8403C55.0497 49.7929 53.7135 49.5705 52.2576 49.346C50.8018 49.1215 49.4734 48.9125 49.3057 48.8818L49.0008 48.8258L49.0655 47.5603C49.101 46.8643 49.1786 45.9518 49.2379 45.5325L49.3457 44.7702L48.3118 43.7373C46.8865 42.3136 45.6458 40.5016 45.4825 39.6053C45.3487 38.8709 45.7775 38.078 46.5089 37.7078C47.546 37.1826 48.4276 37.5306 49.1281 38.7419C49.6396 39.6261 50.1034 40.2524 50.2018 40.1915C50.3273 40.114 50.2969 38.9091 50.1563 38.3809C49.8884 37.3753 49.3275 36.6233 48.6363 36.343C48.229 36.1778 47.5302 36.1249 46.9747 36.2171ZM46.8457 37.9498C45.8342 38.3103 45.5819 39.2661 46.2002 40.3944C47.666 43.0689 50.1261 45.2093 52.8647 46.1925C54.2603 46.6935 56.8031 47.0167 57.6147 46.7961C58.6189 46.5233 59.0861 45.5327 58.631 44.6412C58.3161 44.0242 57.9799 43.8953 56.4824 43.8164C54.5168 43.713 53.4422 43.378 51.9999 42.4188C50.6804 41.5413 49.7945 40.5547 48.6237 38.6593C48.44 38.3616 48.2276 38.1594 47.9542 38.0216C47.4959 37.7906 47.3236 37.7794 46.8457 37.9498ZM27.0895 39.8677L27.041 52.273L27.3398 52.5717C27.5534 52.7851 27.7524 52.8868 28.037 52.9279C28.2561 52.9595 31.0616 52.9732 34.2716 52.9584C39.7472 52.933 40.1233 52.9211 40.358 52.7673C40.8689 52.4326 40.8624 52.5182 40.8624 46.1154C40.8624 39.7954 40.8637 39.8129 40.4033 39.4907C40.2151 39.3589 39.5767 39.3444 33.9349 39.3444H27.6756L27.0895 39.8677ZM63.2491 43.9534C62.4894 44.1923 61.8806 44.6979 61.5167 45.3923C61.3109 45.7847 61.2784 45.956 61.2768 46.6535C61.2754 47.3182 61.3117 47.535 61.4827 47.8817C61.922 48.7733 62.8204 49.3945 63.7695 49.4631C64.2453 49.4975 64.3162 49.4783 64.5535 49.251C65.493 48.3515 65.4145 44.6501 64.4416 43.969C64.2043 43.8028 63.7469 43.7969 63.2491 43.9534ZM59.1666 45.6527C59.1666 45.9164 58.8343 46.477 58.5086 46.7629C58.0469 47.1681 57.4694 47.2731 56.1006 47.201C54.9925 47.1425 54.9494 47.1469 54.9494 47.3178C54.9494 47.598 55.3194 47.9546 55.6672 48.0098C55.9018 48.047 56.229 47.9667 56.96 47.6921C57.4984 47.49 57.946 47.335 57.9549 47.3479C57.9638 47.3606 58.8905 50.0594 60.0141 53.3452C61.1378 56.6309 62.0904 59.3732 62.1311 59.4391C62.1869 59.5294 62.3114 59.4595 62.6374 59.1547C62.8751 58.9324 63.3193 58.6044 63.6244 58.4256C66.4247 56.7854 69.9592 57.408 71.9703 59.8959C72.3827 60.406 72.5031 60.5036 72.6598 60.4547C73.0538 60.3319 73.059 59.9694 72.6762 59.3172C71.5033 57.3188 69.3414 56.0163 66.9592 55.8729L66.0932 55.8208L65.7283 54.8693C64.9234 52.7708 63.5361 51.2489 61.4137 50.1356L60.7593 49.7924L60.0585 47.74C59.4018 45.8168 59.1666 45.2662 59.1666 45.6527ZM31.2823 54.0226C31.2196 54.0479 31.1085 54.184 31.0355 54.325C30.8689 54.647 30.8471 56.7397 31.0072 57.0401C31.1409 57.291 31.3539 57.4538 31.5533 57.4573C31.7568 57.461 31.7527 57.5044 31.4871 58.1578C30.5297 60.5127 29.7389 63.5106 29.7371 64.7917L29.7364 65.2626H32.8334L32.8327 64.0743C32.832 63.0781 32.8659 62.7772 33.0421 62.2134C33.4831 60.8017 34.2983 59.6117 35.3597 58.8301C36.4017 58.0628 37.3296 57.6953 38.5806 57.5544C41.7369 57.1988 44.7391 59.2722 45.5862 62.3927C45.6999 62.8115 45.7435 63.2977 45.741 64.1191L45.7376 65.2626H60.5725L60.4916 64.702C60.4471 64.3938 60.4347 63.8893 60.4641 63.581L60.5175 63.0205H48.5957L48.3058 62.3255C47.733 60.9517 47.3082 59.3465 47.18 58.0714C47.1215 57.4893 47.1272 57.4654 47.3782 57.2496L47.6367 57.0273V55.7264C47.6367 54.473 47.6288 54.417 47.4193 54.1941L47.2017 53.9626L39.299 53.9697C34.9525 53.9736 31.345 53.9974 31.2823 54.0226ZM37.9665 58.5872C36.8631 58.8544 35.7187 59.579 34.9917 60.471C32.8802 63.0618 33.4854 66.854 36.3007 68.6726C37.1981 69.2524 38.114 69.5083 39.2922 69.5083C40.1192 69.5083 40.3955 69.4698 40.997 69.2707C42.803 68.6732 44.2138 67.142 44.6842 65.2687C44.8877 64.4586 44.8231 63.0018 44.5488 62.2134C43.9268 60.4256 42.4176 59.0545 40.552 58.5821C39.8963 58.4161 38.6629 58.4185 37.9665 58.5872ZM65.6268 58.5822C65.3554 58.6562 64.7991 58.8804 64.3906 59.0805C63.0265 59.7488 61.9018 61.1695 61.5474 62.672C61.3734 63.4099 61.3726 64.6305 61.5456 65.311C62.2685 68.1533 65.1498 70.0073 67.9597 69.4381C70.0466 69.0155 71.5333 67.702 72.2292 65.6661C72.5339 64.7744 72.5712 63.4996 72.3197 62.5721C71.8441 60.8189 70.4793 59.349 68.7652 58.7443C67.9221 58.4469 66.4102 58.3688 65.6268 58.5822ZM40.3497 62.1014C41.6649 62.8169 41.8535 64.6214 40.7172 65.6186C40.2597 66.02 39.8852 66.1597 39.2727 66.1574C37.9627 66.1525 36.9871 65.068 37.1215 63.7663C37.2849 62.1841 38.9362 61.3325 40.3497 62.1014ZM67.8317 61.9865C68.6508 62.3274 69.1778 63.2206 69.1038 64.1423C69.0537 64.7672 68.8955 65.1206 68.4802 65.5356C68.0663 65.9494 67.5592 66.1551 66.9474 66.1574C66.3349 66.1597 65.9604 66.02 65.5028 65.6186C64.1699 64.4488 64.722 62.2829 66.4642 61.8476C66.8049 61.7625 67.4513 61.8282 67.8317 61.9865Z" fill="#FF9E0C"/>
</g>
<defs>
<filter id="filter0_d_16372_13036" x="0.813954" y="0.406977" width="98.3721" height="98.3721" filterUnits="userSpaceOnUse" color-interpolation-filters="sRGB">
<feFlood flood-opacity="0" result="BackgroundImageFix"/>
<feColorMatrix in="SourceAlpha" type="matrix" values="0 0 0 0 0 0 0 0 0 0 0 0 0 0 0 0 0 0 127 0" result="hardAlpha"/>
<feOffset dy="2.09302"/>
<feGaussianBlur stdDeviation="2.09302"/>
<feColorMatrix type="matrix" values="0 0 0 0 0 0 0 0 0 0 0 0 0 0 0 0 0 0 0.075 0"/>
<feBlend mode="normal" in2="BackgroundImageFix" result="effect1_dropShadow_16372_13036"/>
<feBlend mode="normal" in="SourceGraphic" in2="effect1_dropShadow_16372_13036" result="shape"/>
</filter>
</defs>
</svg>
